<svg width="800" height="480" viewBox="0 0 800 480" fill="none" xmlns="http://www.w3.org/2000/svg">
<path d="M-154.328 269.57C-193.874 281.054 -231.847 292.537 -269.957 302.881C-278.852 305.248 -288.499 305.511 -297.531 303.933C-332.904 297.797 -368.277 291.31 -403.445 283.333C-411.997 281.404 -420.823 275.093 -427.392 267.729C-431.428 263.259 -434.234 251.6 -432.455 245.552C-431.018 240.643 -421.85 236.172 -416.513 236.786C-387.093 240.204 -357.74 245.902 -328.32 249.671C-268.178 257.385 -212.964 231.088 -157.749 206.455C-154.191 204.877 -152.617 194.534 -150.975 187.959C-130.928 107.225 -114.439 23.3343 -62.3711 -35.4853C-33.1557 -68.533 -1.1351 -98.8631 32.5959 -123.846C64.0692 -147.076 101.084 -123.759 116.821 -80.1918C135.842 -27.5083 133.31 17.7241 102.795 65.0603C56.3378 137.116 0.712219 190.238 -66.2026 225.215C-107.049 246.516 -113.207 271.323 -88.0286 319.711C-65.2447 363.453 -31.5818 376.603 7.55441 374.762C72.8955 371.694 131.052 343.029 187.43 297.008C154.794 218.64 162.252 142.552 190.646 69.6187C222.393 -11.817 278.361 -51.7022 346.713 -63.7992C384.891 -70.549 418.006 -25.8427 420.127 23.2467C423.822 108.978 401.585 176.826 349.791 229.072C317.771 261.33 284.313 291.222 251.266 322.429C302.787 439.805 455.432 467.856 573.251 383.966C560.799 340.487 543.146 299.199 537.468 255.369C524.194 152.369 569.488 -14.0087 670.271 -72.2147C702.086 -90.6232 735.612 -100.09 769.48 -83.4351C779.264 -78.6139 788.979 -65.9908 794.043 -53.8061C829.689 31.7496 804.647 200.845 750.459 271.06C718.985 311.822 692.37 358.72 662.266 404.829C702.702 473.116 875.805 452.867 952.298 350.217C945.388 338.383 935.056 327.338 931.361 313.4C902.967 206.368 892.293 99.3351 947.577 0.104462C968.992 -38.3781 1003.13 -55.8222 1039.05 -59.1533C1076.75 -62.6596 1111.58 -7.96004 1107.34 55.0672C1103.71 108.627 1093.86 162.625 1080.11 213.468C1067.86 258.876 1046.44 300.251 1027.56 347.324C1053.08 368.187 1085.17 389.488 1124.1 393.082C1203.47 400.446 1274.56 367.048 1341.33 318.835C1380.2 290.784 1415.02 253.178 1450.46 217.939C1460.59 207.858 1466.68 191.115 1475.57 175.95C1482.83 178.579 1490.56 181.385 1500 184.803C1494.39 238.802 1467.91 276.933 1437.46 304.897C1350.3 384.93 1255.88 447.081 1145.65 451.814C1103.03 453.655 1061.09 442.26 1023.8 410.878C1007.58 397.203 993.692 390.015 971.455 411.491C882.988 496.696 728.017 540.614 624.087 440.068C616.219 432.442 598.156 435.072 587.277 440.682C531.652 469.697 475.068 490.297 414.312 485.914C340.418 480.567 276.034 447.695 225.472 376.953C212.404 358.632 203.304 354.074 183.462 366.084C139.878 392.557 94.6531 415.523 48.6064 433.757C-13.519 458.389 -116.628 407.196 -143.038 318.397C-147.759 302.618 -150.564 285.875 -154.259 269.57H-154.328ZM617.587 351.181C626.345 342.152 633.94 335.578 640.44 327.513C673.418 286.664 710.023 249.233 737.938 203.3C776.595 139.571 773.38 62.6057 761.954 -12.5185C756.754 -46.4428 735.201 -54.3319 709.749 -38.2902C655.424 -4.0153 617.861 49.0186 598.019 122.127C576.672 200.757 568.804 278.161 617.656 351.181H617.587ZM225.951 273.953C259.34 243.974 290.198 217.237 320.234 189.011C362.518 149.214 379.143 91.9719 380.58 27.6297C381.333 -5.68094 366.965 -17.6904 341.034 -12.7815C307.918 -6.55767 281.987 15.9709 261.324 48.3173C220.067 112.922 198.241 183.489 225.951 274.041V273.953ZM987.261 307.001C1019.83 254.668 1048.5 199.618 1057.05 132.909C1061.91 94.8647 1060.26 54.8041 1057.87 16.0586C1056.5 -6.1193 1041.93 -9.09972 1027.35 0.718155C1001.56 18.1624 980.214 40.6909 969.335 77.4203C955.924 122.828 953.461 169.112 958.661 216.799C962.082 248.532 962.766 281.317 987.261 307.001ZM-98.6336 170.603C-96.1705 172.268 -93.6387 173.846 -91.1756 175.511C-26.245 146.233 39.8487 79.9626 75.1534 8.78296C85.0059 -11.1158 83.911 -68.7084 71.5269 -71.4258C57.5009 -74.4062 38.1381 -67.6562 27.1224 -55.8221C-0.656097 -25.9302 -29.1187 5.62714 -49.7131 43.2331C-70.718 81.4527 -82.6917 127.825 -98.6336 170.603Z" fill="#1AA6B7" fill-opacity="0.1"/>
</svg>
